# First aid room (first_aid facility): white building, red cross, gable roof.
# OBJ space: +X forward, +Y up, +Z right; origin at footprint-base centre.
mtllib materials.mtl

v -1.3 0 -1.3
v 1.3 0 -1.3
v 1.3 0 1.3
v -1.3 0 1.3
v -1.3 0 -1.3
v -1.3 2 -1.3
v 1.3 2 -1.3
v 1.3 0 -1.3
v -1.3 0 1.3
v 1.3 0 1.3
v 1.3 2 1.3
v -1.3 2 1.3
v -1.3 0 -1.3
v -1.3 0 1.3
v -1.3 2 1.3
v -1.3 2 -1.3
v 1.3 0 -1.3
v 1.3 2 -1.3
v 1.3 2 1.3
v 1.3 0 1.3
v 1.34 1 -0.25
v 1.34 1.5 -0.25
v 1.34 1.5 0.25
v 1.34 1 0.25
v 1.34 1.13 -0.5
v 1.34 1.37 -0.5
v 1.34 1.37 0.5
v 1.34 1.13 0.5
v -1.45 2 1.45
v 1.45 2 1.45
v 1.45 2.7 0
v -1.45 2.7 0
v 1.45 2 -1.45
v -1.45 2 -1.45
v -1.45 2.7 0
v 1.45 2.7 0
v -1.45 2 -1.45
v -1.45 2 1.45
v -1.45 2.7 0
v 1.45 2 1.45
v 1.45 2 -1.45
v 1.45 2.7 0

vn 0 -1 0
vn 0 0 -1
vn 0 0 1
vn -1 0 0
vn 1 0 0
vn 0 0.7071 0.7071
vn 0 0.7071 -0.7071

usemtl White
f 1//1 2//1 3//1
f 1//1 3//1 4//1
f 5//2 6//2 7//2
f 5//2 7//2 8//2
f 9//3 10//3 11//3
f 9//3 11//3 12//3
f 13//4 14//4 15//4
f 13//4 15//4 16//4
f 17//5 18//5 19//5
f 17//5 19//5 20//5

usemtl Red
f 21//5 22//5 23//5
f 21//5 23//5 24//5
f 25//5 26//5 27//5
f 25//5 27//5 28//5

usemtl RoofSlate
f 29//6 30//6 31//6
f 29//6 31//6 32//6
f 33//7 34//7 35//7
f 33//7 35//7 36//7
f 37//4 38//4 39//4
f 40//5 41//5 42//5
