# Information kiosk (information_kiosk): square booth + pointed roof + board.
# OBJ space: +X forward, +Y up, +Z right; origin at footprint-base centre.
mtllib materials.mtl

v -1 0 -1
v 1 0 -1
v 1 0 1
v -1 0 1
v -1 0 -1
v -1 1.7 -1
v 1 1.7 -1
v 1 0 -1
v -1 0 1
v 1 0 1
v 1 1.7 1
v -1 1.7 1
v -1 0 -1
v -1 0 1
v -1 1.7 1
v -1 1.7 -1
v 1 0 -1
v 1 1.7 -1
v 1 1.7 1
v 1 0 1
v 1.04 0.9 -0.8
v 1.04 1.5 -0.8
v 1.04 1.5 0.8
v 1.04 0.9 0.8
v -1.2 1.7 -1.2
v 1.2 1.7 -1.2
v 1.2 1.7 1.2
v -1.2 1.7 1.2
v -1.2 1.78 -1.2
v -1.2 1.78 1.2
v 1.2 1.78 1.2
v 1.2 1.78 -1.2
v -1.2 1.7 -1.2
v -1.2 1.78 -1.2
v 1.2 1.78 -1.2
v 1.2 1.7 -1.2
v -1.2 1.7 1.2
v 1.2 1.7 1.2
v 1.2 1.78 1.2
v -1.2 1.78 1.2
v -1.2 1.7 -1.2
v -1.2 1.7 1.2
v -1.2 1.78 1.2
v -1.2 1.78 -1.2
v 1.2 1.7 -1.2
v 1.2 1.78 -1.2
v 1.2 1.78 1.2
v 1.2 1.7 1.2
v -1.2 1.78 -1.2
v 1.2 1.78 -1.2
v 0 2.6 0
v 1.2 1.78 -1.2
v 1.2 1.78 1.2
v 0 2.6 0
v 1.2 1.78 1.2
v -1.2 1.78 1.2
v 0 2.6 0
v -1.2 1.78 1.2
v -1.2 1.78 -1.2
v 0 2.6 0

vn 0 -1 0
vn 0 0 -1
vn 0 0 1
vn -1 0 0
vn 1 0 0
vn 0 1 0
vn 0 -0.8256 0.5642
vn -0.5642 -0.8256 0
vn -0 -0.8256 -0.5642
vn 0.5642 -0.8256 0

usemtl Wood
f 1//1 2//1 3//1
f 1//1 3//1 4//1
f 5//2 6//2 7//2
f 5//2 7//2 8//2
f 9//3 10//3 11//3
f 9//3 11//3 12//3
f 13//4 14//4 15//4
f 13//4 15//4 16//4
f 17//5 18//5 19//5
f 17//5 19//5 20//5

usemtl White
f 21//5 22//5 23//5
f 21//5 23//5 24//5

usemtl Remap1
f 25//1 26//1 27//1
f 25//1 27//1 28//1
f 29//6 30//6 31//6
f 29//6 31//6 32//6
f 33//2 34//2 35//2
f 33//2 35//2 36//2
f 37//3 38//3 39//3
f 37//3 39//3 40//3
f 41//4 42//4 43//4
f 41//4 43//4 44//4
f 45//5 46//5 47//5
f 45//5 47//5 48//5
f 49//7 50//7 51//7
f 52//8 53//8 54//8
f 55//9 56//9 57//9
f 58//10 59//10 60//10
