# Souvenir shop (shop): kiosk with a glazed front + awning + goods.
# OBJ space: +X forward, +Y up, +Z right; origin at footprint-base centre.
mtllib materials.mtl

v -1.2 0 -1.2
v 1.2 0 -1.2
v 1.2 0 1.2
v -1.2 0 1.2
v -1.2 0 -1.2
v -1.2 1.8 -1.2
v 1.2 1.8 -1.2
v 1.2 0 -1.2
v -1.2 0 1.2
v 1.2 0 1.2
v 1.2 1.8 1.2
v -1.2 1.8 1.2
v -1.2 0 -1.2
v -1.2 0 1.2
v -1.2 1.8 1.2
v -1.2 1.8 -1.2
v 1.18 0.9 -1
v 1.18 0.9 1
v 1.18 1.6 1
v 1.18 1.6 -1
v 1.22 0.9 -1
v 1.22 1.6 -1
v 1.22 1.6 1
v 1.22 0.9 1
v 1.22 0 -1.2
v 1.22 0.9 -1.2
v 1.22 0.9 1.2
v 1.22 0 1.2
v 1.22 1.6 -1.2
v 1.22 1.8 -1.2
v 1.22 1.8 1.2
v 1.22 1.6 1.2
v -1.3 1.78 -1.3
v 1.7 1.78 -1.3
v 1.7 1.78 1.3
v -1.3 1.78 1.3
v -1.3 1.95 -1.3
v -1.3 1.95 1.3
v 1.7 1.95 1.3
v 1.7 1.95 -1.3
v -1.3 1.78 -1.3
v -1.3 1.95 -1.3
v 1.7 1.95 -1.3
v 1.7 1.78 -1.3
v -1.3 1.78 1.3
v 1.7 1.78 1.3
v 1.7 1.95 1.3
v -1.3 1.95 1.3
v -1.3 1.78 -1.3
v -1.3 1.78 1.3
v -1.3 1.95 1.3
v -1.3 1.95 -1.3
v 1.7 1.78 -1.3
v 1.7 1.95 -1.3
v 1.7 1.95 1.3
v 1.7 1.78 1.3

vn 0 -1 0
vn 0 0 -1
vn 0 0 1
vn -1 0 0
vn 1 0 0
vn 0 1 0

usemtl Wood
f 1//1 2//1 3//1
f 1//1 3//1 4//1
f 5//2 6//2 7//2
f 5//2 7//2 8//2
f 9//3 10//3 11//3
f 9//3 11//3 12//3
f 13//4 14//4 15//4
f 13//4 15//4 16//4

usemtl Glass
f 17//4 18//4 19//4
f 17//4 19//4 20//4
f 21//5 22//5 23//5
f 21//5 23//5 24//5

usemtl Wood
f 25//5 26//5 27//5
f 25//5 27//5 28//5
f 29//5 30//5 31//5
f 29//5 31//5 32//5

usemtl Remap1
f 33//1 34//1 35//1
f 33//1 35//1 36//1
f 37//6 38//6 39//6
f 37//6 39//6 40//6
f 41//2 42//2 43//2
f 41//2 43//2 44//2
f 45//3 46//3 47//3
f 45//3 47//3 48//3
f 49//4 50//4 51//4
f 49//4 51//4 52//4
f 53//5 54//5 55//5
f 53//5 55//5 56//5
