# Haunted house (haunted_house, 3x3 building): spooky mansion with a tower.
# OBJ space: +X forward, +Y up, +Z right; origin at footprint-base centre.
mtllib materials.mtl

v -2.2 0 -2.2
v 2.2 0 -2.2
v 2.2 0 2.2
v -2.2 0 2.2
v -2.2 0 -2.2
v -2.2 3.4 -2.2
v 2.2 3.4 -2.2
v 2.2 0 -2.2
v -2.2 0 2.2
v 2.2 0 2.2
v 2.2 3.4 2.2
v -2.2 3.4 2.2
v -2.2 0 -2.2
v -2.2 0 2.2
v -2.2 3.4 2.2
v -2.2 3.4 -2.2
v 2.2 0 -2.2
v 2.2 3.4 -2.2
v 2.2 3.4 2.2
v 2.2 0 2.2
v -2.4 3.4 2.4
v 2.4 3.4 2.4
v 2.4 4.8 0
v -2.4 4.8 0
v 2.4 3.4 -2.4
v -2.4 3.4 -2.4
v -2.4 4.8 0
v 2.4 4.8 0
v -2.4 3.4 -2.4
v -2.4 3.4 2.4
v -2.4 4.8 0
v 2.4 3.4 2.4
v 2.4 3.4 -2.4
v 2.4 4.8 0
v 1.2 0 -2.2
v 2.2 0 -2.2
v 2.2 0 -1.2
v 1.2 0 -1.2
v 1.2 0 -2.2
v 1.2 4.6 -2.2
v 2.2 4.6 -2.2
v 2.2 0 -2.2
v 1.2 0 -1.2
v 2.2 0 -1.2
v 2.2 4.6 -1.2
v 1.2 4.6 -1.2
v 1.2 0 -2.2
v 1.2 0 -1.2
v 1.2 4.6 -1.2
v 1.2 4.6 -2.2
v 2.2 0 -2.2
v 2.2 4.6 -2.2
v 2.2 4.6 -1.2
v 2.2 0 -1.2
v 1.1 4.6 -2.3
v 2.3 4.6 -2.3
v 1.7 6 -1.7
v 2.3 4.6 -2.3
v 2.3 4.6 -1.1
v 1.7 6 -1.7
v 2.3 4.6 -1.1
v 1.1 4.6 -1.1
v 1.7 6 -1.7
v 1.1 4.6 -1.1
v 1.1 4.6 -2.3
v 1.7 6 -1.7
v 2.24 0 -0.6
v 2.24 1.8 -0.6
v 2.24 1.8 0.6
v 2.24 0 0.6
v 2.24 2.2 -1.6
v 2.24 2.9 -1.6
v 2.24 2.9 -0.8
v 2.24 2.2 -0.8
v 2.24 2.2 0.8
v 2.24 2.9 0.8
v 2.24 2.9 1.6
v 2.24 2.2 1.6

vn 0 -1 0
vn 0 0 -1
vn 0 0 1
vn -1 0 0
vn 1 0 0
vn 0 0.7071 0.7071
vn 0 0.7071 -0.7071
vn 0 -0.3939 0.9191
vn -0.9191 -0.3939 0
vn -0 -0.3939 -0.9191
vn 0.9191 -0.3939 0

usemtl DarkWood
f 1//1 2//1 3//1
f 1//1 3//1 4//1
f 5//2 6//2 7//2
f 5//2 7//2 8//2
f 9//3 10//3 11//3
f 9//3 11//3 12//3
f 13//4 14//4 15//4
f 13//4 15//4 16//4
f 17//5 18//5 19//5
f 17//5 19//5 20//5

usemtl RoofSlate
f 21//6 22//6 23//6
f 21//6 23//6 24//6
f 25//7 26//7 27//7
f 25//7 27//7 28//7
f 29//4 30//4 31//4
f 32//5 33//5 34//5

usemtl DarkWood
f 35//1 36//1 37//1
f 35//1 37//1 38//1
f 39//2 40//2 41//2
f 39//2 41//2 42//2
f 43//3 44//3 45//3
f 43//3 45//3 46//3
f 47//4 48//4 49//4
f 47//4 49//4 50//4
f 51//5 52//5 53//5
f 51//5 53//5 54//5

usemtl RoofSlate
f 55//8 56//8 57//8
f 58//9 59//9 60//9
f 61//10 62//10 63//10
f 64//11 65//11 66//11

usemtl DoorWood
f 67//5 68//5 69//5
f 67//5 69//5 70//5

usemtl Remap1
f 71//5 72//5 73//5
f 71//5 73//5 74//5
f 75//5 76//5 77//5
f 75//5 77//5 78//5
